<svg width="1255" height="706" viewBox="0 0 1255 706" fill="none" xmlns="http://www.w3.org/2000/svg">
<g clip-path="url(#clip0_223_903)">
<rect width="1255" height="706" fill="white"/>
<g filter="url(#filter0_d_223_903)">
<path d="M341.687 51.21H264.407V-25.9844L303.047 12.6128L341.687 51.21Z" fill="#EBEBEB" fill-opacity="0.25"/>
<path d="M32.6917 205.557H-44.5886V282.751H32.6917V205.557Z" fill="#C9C9C9" fill-opacity="0.25"/>
<path d="M-44.5886 205.557H32.6499V282.709L-5.99018 244.112L-44.5886 205.557Z" fill="#939393" fill-opacity="0.25"/>
<path d="M32.6917 128.363H-44.5886V205.516H32.6917V128.363Z" fill="#C8C8C8" fill-opacity="0.25"/>
<path d="M32.6499 128.363V205.558H-44.5886L-5.99018 166.96L32.6499 128.363Z" fill="#DBDBDB" fill-opacity="0.25"/>
<path d="M32.6917 51.209H-44.5886V128.403H32.6917V51.209Z" fill="#C9C9C9" fill-opacity="0.25"/>
<path d="M-44.5886 51.209H32.6499V128.362L-5.99018 89.7645L-44.5886 51.209Z" fill="#939393" fill-opacity="0.25"/>
<path d="M32.6499 -25.9844V51.21H-44.5886L-5.99018 12.6128L32.6499 -25.9844Z" fill="#DBDBDB" fill-opacity="0.25"/>
<path d="M109.888 -25.9844H32.65V51.1683H109.888V-25.9844Z" fill="#C9C9C9" fill-opacity="0.25"/>
<path d="M109.93 51.21H32.65V-25.9844L71.2901 12.6128L109.93 51.21Z" fill="#939393" fill-opacity="0.25"/>
<path d="M187.21 -25.9844H109.93V51.1683H187.21V-25.9844Z" fill="#4D4D4D" fill-opacity="0.25"/>
<path d="M187.169 -25.9844V51.21H109.93L148.529 12.6128L187.169 -25.9844Z" fill="#939393" fill-opacity="0.25"/>
<path d="M32.65 128.362V51.209H109.93L71.2901 89.7645L32.65 128.362Z" fill="#DBDBDB" fill-opacity="0.25"/>
<path d="M187.21 51.209H109.93V128.403H187.21V51.209Z" fill="#DBDBDB" fill-opacity="0.25"/>
<path d="M187.169 51.209V128.362H109.93L148.529 89.7645L187.169 51.209Z" fill="#EBEBEB" fill-opacity="0.25"/>
<path d="M109.93 205.558H32.65V128.363L71.2901 166.96L109.93 205.558Z" fill="#939393" fill-opacity="0.25"/>
<path d="M187.21 128.363H109.93V205.516H187.21V128.363Z" fill="#C8C8C8" fill-opacity="0.25"/>
<path d="M187.169 128.363V205.558H109.93L148.529 166.96L187.169 128.363Z" fill="#939393" fill-opacity="0.25"/>
<path d="M32.65 282.709V205.557H109.93L71.2901 244.112L32.65 282.709Z" fill="#DBDBDB" fill-opacity="0.25"/>
<path d="M187.169 205.558V128.363H264.407L225.809 166.96L187.169 205.558Z" fill="#EBEBEB" fill-opacity="0.25"/>
<path d="M109.93 359.862V282.709H187.169L148.529 321.306L109.93 359.862Z" fill="#EBEBEB" fill-opacity="0.25"/>
<path d="M187.169 359.859H264.407V437.054L225.809 398.457L187.169 359.859Z" fill="#4D4D4D" fill-opacity="0.25"/>
<path d="M187.169 51.209H264.407V128.362L225.809 89.7645L187.169 51.209Z" fill="#939393" fill-opacity="0.25"/>
<path d="M341.687 51.209H418.926V128.362L380.327 89.7645L341.687 51.209Z" fill="#939393" fill-opacity="0.25"/>
<path d="M187.169 51.21V-25.9844H264.407L225.809 12.6128L187.169 51.21Z" fill="#EBEBEB" fill-opacity="0.25"/>
<path d="M32.6499 359.903H-44.5886V282.709L-5.99018 321.306L32.6499 359.903Z" fill="#939393" fill-opacity="0.25"/>
<path d="M32.65 359.862V282.709H109.93L71.2901 321.306L32.65 359.862Z" fill="#939393" fill-opacity="0.25"/>
<path d="M32.6499 359.902V437.055H-44.5886L-5.99018 398.458L32.6499 359.902Z" fill="#939393" fill-opacity="0.25"/>
<path d="M109.93 282.709V359.903H32.65L71.2901 321.306L109.93 282.709Z" fill="#DBDBDB" fill-opacity="0.25"/>
<path d="M187.169 591.404H109.93V668.557H187.169V591.404Z" fill="#C9C9C9" fill-opacity="0.25"/>
<path d="M109.93 668.557V591.404H187.169L148.529 630.001L109.93 668.557Z" fill="#939393" fill-opacity="0.25"/>
<path d="M187.169 668.557H109.93V745.709H187.169V668.557Z" fill="#4D4D4D" fill-opacity="0.25"/>
<path d="M187.169 745.751H109.93V668.557L148.529 707.154L187.169 745.751Z" fill="#939393" fill-opacity="0.25"/>
<path d="M32.65 591.404H109.93V668.557L71.2901 630.001L32.65 591.404Z" fill="#DBDBDB" fill-opacity="0.25"/>
<path d="M109.93 745.751H32.65V668.557L71.2901 707.154L109.93 745.751Z" fill="#EBEBEB" fill-opacity="0.25"/>
<path d="M32.6917 591.404H-44.5886V668.557H32.6917V591.404Z" fill="#C9C9C9" fill-opacity="0.25"/>
<path d="M-44.5886 668.557V591.404H32.6499L-5.99018 630.001L-44.5886 668.557Z" fill="#939393" fill-opacity="0.25"/>
<path d="M32.6917 668.557H-44.5886V745.709H32.6917V668.557Z" fill="#C8C8C8" fill-opacity="0.25"/>
<path d="M-44.5886 745.751V668.557H32.6499L-5.99018 707.154L-44.5886 745.751Z" fill="#939393" fill-opacity="0.25"/>
<path d="M32.6917 514.207H-44.5886V591.401H32.6917V514.207Z" fill="#C8C8C8" fill-opacity="0.25"/>
<path d="M32.6499 591.401H-44.5886V514.207L-5.99018 552.804L32.6499 591.401Z" fill="#DBDBDB" fill-opacity="0.25"/>
<path d="M-44.5886 437.057H32.6499V514.209L-5.99018 475.654L-44.5886 437.057Z" fill="#EBEBEB" fill-opacity="0.25"/>
<path d="M109.93 514.207V591.401H32.65L71.2901 552.804L109.93 514.207Z" fill="#939393" fill-opacity="0.25"/>
<path d="M109.888 437.057H32.65V514.209H109.888V437.057Z" fill="#C8C8C8" fill-opacity="0.25"/>
<path d="M32.65 437.057H109.93V514.209L71.2901 475.654L32.65 437.057Z" fill="#939393" fill-opacity="0.25"/>
<path d="M187.169 591.401H109.93V514.207L148.529 552.804L187.169 591.401Z" fill="#DBDBDB" fill-opacity="0.25"/>
<path d="M32.65 359.859H109.93V437.054L71.2901 398.457L32.65 359.859Z" fill="#4D4D4D" fill-opacity="0.25"/>
<path d="M264.449 591.404V668.557H187.169L225.809 630.001L264.449 591.404Z" fill="#939393" fill-opacity="0.25"/>
<path d="M264.449 591.401H187.169V514.207L225.809 552.804L264.449 591.401Z" fill="#939393" fill-opacity="0.25"/>
<path d="M341.687 668.557H264.449V591.404L303.047 630.001L341.687 668.557Z" fill="#DBDBDB" fill-opacity="0.25"/>
<path d="M341.687 668.557H418.968V745.751L380.327 707.154L341.687 668.557Z" fill="#4D4D4D" fill-opacity="0.25"/>
<path d="M418.968 591.401H341.687V514.207L380.327 552.804L418.968 591.401Z" fill="#4D4D4D" fill-opacity="0.25"/>
<path d="M187.169 514.207H264.449V591.401L225.809 552.804L187.169 514.207Z" fill="#DBDBDB" fill-opacity="0.25"/>
<path d="M418.968 745.751H341.687V668.557L380.327 707.154L418.968 745.751Z" fill="#EBEBEB" fill-opacity="0.25"/>
<path d="M264.449 745.751V668.557H341.687L303.047 707.154L264.449 745.751Z" fill="#939393" fill-opacity="0.25"/>
<path d="M264.449 745.751H187.169V668.557L225.809 707.154L264.449 745.751Z" fill="#EBEBEB" fill-opacity="0.25"/>
<path d="M496.206 745.751V668.557H573.444L534.846 707.154L496.206 745.751Z" fill="#EBEBEB" fill-opacity="0.25"/>
</g>
<g filter="url(#filter1_d_223_903)">
<path d="M897.56 51.21H974.84V-25.9844L936.2 12.6128L897.56 51.21Z" fill="#EBEBEB" fill-opacity="0.25"/>
<path d="M1206.56 205.557H1283.84V282.751H1206.56V205.557Z" fill="#C9C9C9" fill-opacity="0.25"/>
<path d="M1283.84 205.557H1206.6V282.709L1245.24 244.112L1283.84 205.557Z" fill="#939393" fill-opacity="0.25"/>
<path d="M1206.56 128.363H1283.84V205.516H1206.56V128.363Z" fill="#C8C8C8" fill-opacity="0.25"/>
<path d="M1206.6 128.363V205.558H1283.84L1245.24 166.96L1206.6 128.363Z" fill="#DBDBDB" fill-opacity="0.25"/>
<path d="M1206.56 51.209H1283.84V128.403H1206.56V51.209Z" fill="#C9C9C9" fill-opacity="0.25"/>
<path d="M1283.84 51.209H1206.6V128.362L1245.24 89.7645L1283.84 51.209Z" fill="#939393" fill-opacity="0.25"/>
<path d="M1206.6 -25.9844V51.21H1283.84L1245.24 12.6128L1206.6 -25.9844Z" fill="#DBDBDB" fill-opacity="0.25"/>
<path d="M1129.36 -25.9844H1206.6V51.1683H1129.36V-25.9844Z" fill="#C9C9C9" fill-opacity="0.25"/>
<path d="M1129.32 51.21H1206.6V-25.9844L1167.96 12.6128L1129.32 51.21Z" fill="#939393" fill-opacity="0.25"/>
<path d="M1052.04 -25.9844H1129.32V51.1683H1052.04V-25.9844Z" fill="#4D4D4D" fill-opacity="0.25"/>
<path d="M1052.08 -25.9844V51.21H1129.32L1090.72 12.6128L1052.08 -25.9844Z" fill="#939393" fill-opacity="0.25"/>
<path d="M1206.6 128.362V51.209H1129.32L1167.96 89.7645L1206.6 128.362Z" fill="#DBDBDB" fill-opacity="0.25"/>
<path d="M1052.04 51.209H1129.32V128.403H1052.04V51.209Z" fill="#DBDBDB" fill-opacity="0.25"/>
<path d="M1052.08 51.209V128.362H1129.32L1090.72 89.7645L1052.08 51.209Z" fill="#EBEBEB" fill-opacity="0.25"/>
<path d="M1129.32 205.558H1206.6V128.363L1167.96 166.96L1129.32 205.558Z" fill="#939393" fill-opacity="0.25"/>
<path d="M1052.04 128.363H1129.32V205.516H1052.04V128.363Z" fill="#C8C8C8" fill-opacity="0.25"/>
<path d="M1052.08 128.363V205.558H1129.32L1090.72 166.96L1052.08 128.363Z" fill="#939393" fill-opacity="0.25"/>
<path d="M1206.6 282.709V205.557H1129.32L1167.96 244.112L1206.6 282.709Z" fill="#DBDBDB" fill-opacity="0.25"/>
<path d="M1052.08 205.558V128.363H974.84L1013.44 166.96L1052.08 205.558Z" fill="#EBEBEB" fill-opacity="0.25"/>
<path d="M1129.32 359.862V282.709H1052.08L1090.72 321.306L1129.32 359.862Z" fill="#EBEBEB" fill-opacity="0.25"/>
<path d="M1052.08 359.859H974.84V437.054L1013.44 398.457L1052.08 359.859Z" fill="#4D4D4D" fill-opacity="0.25"/>
<path d="M1052.08 51.209H974.84V128.362L1013.44 89.7645L1052.08 51.209Z" fill="#939393" fill-opacity="0.25"/>
<path d="M897.56 51.209H820.322V128.362L858.92 89.7645L897.56 51.209Z" fill="#939393" fill-opacity="0.25"/>
<path d="M1052.08 51.21V-25.9844H974.84L1013.44 12.6128L1052.08 51.21Z" fill="#EBEBEB" fill-opacity="0.25"/>
<path d="M1206.6 359.903H1283.84V282.709L1245.24 321.306L1206.6 359.903Z" fill="#939393" fill-opacity="0.25"/>
<path d="M1206.6 359.862V282.709H1129.32L1167.96 321.306L1206.6 359.862Z" fill="#939393" fill-opacity="0.25"/>
<path d="M1206.6 359.902V437.055H1283.84L1245.24 398.458L1206.6 359.902Z" fill="#939393" fill-opacity="0.25"/>
<path d="M1129.32 282.709V359.903H1206.6L1167.96 321.306L1129.32 282.709Z" fill="#DBDBDB" fill-opacity="0.25"/>
<path d="M1052.08 591.404H1129.32V668.557H1052.08V591.404Z" fill="#C9C9C9" fill-opacity="0.25"/>
<path d="M1129.32 668.557V591.404H1052.08L1090.72 630.001L1129.32 668.557Z" fill="#939393" fill-opacity="0.25"/>
<path d="M1052.08 668.557H1129.32V745.709H1052.08V668.557Z" fill="#4D4D4D" fill-opacity="0.25"/>
<path d="M1052.08 745.751H1129.32V668.557L1090.72 707.154L1052.08 745.751Z" fill="#939393" fill-opacity="0.25"/>
<path d="M1206.6 591.404H1129.32V668.557L1167.96 630.001L1206.6 591.404Z" fill="#DBDBDB" fill-opacity="0.25"/>
<path d="M1129.32 745.751H1206.6V668.557L1167.96 707.154L1129.32 745.751Z" fill="#EBEBEB" fill-opacity="0.25"/>
<path d="M1206.56 591.404H1283.84V668.557H1206.56V591.404Z" fill="#C9C9C9" fill-opacity="0.25"/>
<path d="M1283.84 668.557V591.404H1206.6L1245.24 630.001L1283.84 668.557Z" fill="#939393" fill-opacity="0.25"/>
<path d="M1206.56 668.557H1283.84V745.709H1206.56V668.557Z" fill="#C8C8C8" fill-opacity="0.25"/>
<path d="M1283.84 745.751V668.557H1206.6L1245.24 707.154L1283.84 745.751Z" fill="#939393" fill-opacity="0.25"/>
<path d="M1206.56 514.207H1283.84V591.401H1206.56V514.207Z" fill="#C8C8C8" fill-opacity="0.25"/>
<path d="M1206.6 591.401H1283.84V514.207L1245.24 552.804L1206.6 591.401Z" fill="#DBDBDB" fill-opacity="0.25"/>
<path d="M1283.84 437.057H1206.6V514.209L1245.24 475.654L1283.84 437.057Z" fill="#EBEBEB" fill-opacity="0.25"/>
<path d="M1129.32 514.207V591.401H1206.6L1167.96 552.804L1129.32 514.207Z" fill="#939393" fill-opacity="0.25"/>
<path d="M1129.36 437.057H1206.6V514.209H1129.36V437.057Z" fill="#C8C8C8" fill-opacity="0.25"/>
<path d="M1206.6 437.057H1129.32V514.209L1167.96 475.654L1206.6 437.057Z" fill="#939393" fill-opacity="0.25"/>
<path d="M1052.08 591.401H1129.32V514.207L1090.72 552.804L1052.08 591.401Z" fill="#DBDBDB" fill-opacity="0.25"/>
<path d="M1206.6 359.859H1129.32V437.054L1167.96 398.457L1206.6 359.859Z" fill="#4D4D4D" fill-opacity="0.25"/>
<path d="M974.799 591.404V668.557H1052.08L1013.44 630.001L974.799 591.404Z" fill="#939393" fill-opacity="0.25"/>
<path d="M974.799 591.401H1052.08V514.207L1013.44 552.804L974.799 591.401Z" fill="#939393" fill-opacity="0.25"/>
<path d="M897.56 668.557H974.798V591.404L936.2 630.001L897.56 668.557Z" fill="#DBDBDB" fill-opacity="0.25"/>
<path d="M897.56 668.557H820.28V745.751L858.92 707.154L897.56 668.557Z" fill="#4D4D4D" fill-opacity="0.25"/>
<path d="M820.28 591.401H897.56V514.207L858.92 552.804L820.28 591.401Z" fill="#4D4D4D" fill-opacity="0.25"/>
<path d="M1052.08 514.207H974.799V591.401L1013.44 552.804L1052.08 514.207Z" fill="#DBDBDB" fill-opacity="0.25"/>
<path d="M820.28 745.751H897.56V668.557L858.92 707.154L820.28 745.751Z" fill="#EBEBEB" fill-opacity="0.25"/>
<path d="M974.798 745.751V668.557H897.56L936.2 707.154L974.798 745.751Z" fill="#939393" fill-opacity="0.25"/>
<path d="M974.799 745.751H1052.08V668.557L1013.44 707.154L974.799 745.751Z" fill="#EBEBEB" fill-opacity="0.25"/>
<path d="M743.041 745.751V668.557H665.803L704.401 707.154L743.041 745.751Z" fill="#EBEBEB" fill-opacity="0.25"/>
</g>
<rect x="615" y="-41" width="1498" height="787" fill="url(#paint0_linear_223_903)"/>
<rect width="1499" height="787" transform="matrix(-1 0 0 1 641 -41)" fill="url(#paint1_linear_223_903)"/>
</g>
<defs>
<filter id="filter0_d_223_903" x="-125.869" y="-25.9844" width="703.313" height="779.736" filterUnits="userSpaceOnUse" color-interpolation-filters="sRGB">
<feFlood flood-opacity="0" result="BackgroundImageFix"/>
<feColorMatrix in="SourceAlpha" type="matrix" values="0 0 0 0 0 0 0 0 0 0 0 0 0 0 0 0 0 0 127 0" result="hardAlpha"/>
<feOffset dy="4"/>
<feGaussianBlur stdDeviation="2"/>
<feComposite in2="hardAlpha" operator="out"/>
<feColorMatrix type="matrix" values="0 0 0 0 0 0 0 0 0 0 0 0 0 0 0 0 0 0 0.1 0"/>
<feBlend mode="normal" in2="BackgroundImageFix" result="effect1_dropShadow_223_903"/>
<feBlend mode="normal" in="SourceGraphic" in2="effect1_dropShadow_223_903" result="shape"/>
</filter>
<filter id="filter1_d_223_903" x="661.803" y="-25.9844" width="703.313" height="779.736" filterUnits="userSpaceOnUse" color-interpolation-filters="sRGB">
<feFlood flood-opacity="0" result="BackgroundImageFix"/>
<feColorMatrix in="SourceAlpha" type="matrix" values="0 0 0 0 0 0 0 0 0 0 0 0 0 0 0 0 0 0 127 0" result="hardAlpha"/>
<feOffset dy="4"/>
<feGaussianBlur stdDeviation="2"/>
<feComposite in2="hardAlpha" operator="out"/>
<feColorMatrix type="matrix" values="0 0 0 0 0 0 0 0 0 0 0 0 0 0 0 0 0 0 0.1 0"/>
<feBlend mode="normal" in2="BackgroundImageFix" result="effect1_dropShadow_223_903"/>
<feBlend mode="normal" in="SourceGraphic" in2="effect1_dropShadow_223_903" result="shape"/>
</filter>
<linearGradient id="paint0_linear_223_903" x1="2113" y1="352.5" x2="615" y2="352.5" gradientUnits="userSpaceOnUse">
<stop stop-color="white" stop-opacity="0"/>
<stop offset="1" stop-color="white"/>
</linearGradient>
<linearGradient id="paint1_linear_223_903" x1="1499" y1="393.5" x2="0" y2="393.5" gradientUnits="userSpaceOnUse">
<stop stop-color="white" stop-opacity="0"/>
<stop offset="1" stop-color="white"/>
</linearGradient>
<clipPath id="clip0_223_903">
<rect width="1255" height="706" fill="white"/>
</clipPath>
</defs>
</svg>
